<?xml version="1.0" encoding="UTF-8" standalone="no"?>
<svg
   version="1.1"
   x="0px"
   y="0px"
   viewBox="0 0 87.99971 86.000031"
   id="svg2"
   sodipodi:docname="noun-photo-stack-1031725.svg"
   width="87.99971"
   height="86.000031"
   xmlns:inkscape="http://www.inkscape.org/namespaces/inkscape"
   xmlns:sodipodi="http://sodipodi.sourceforge.net/DTD/sodipodi-0.dtd"
   xmlns="http://www.w3.org/2000/svg"
   xmlns:svg="http://www.w3.org/2000/svg">
  <defs
     id="defs2" />
  <sodipodi:namedview
     id="namedview2"
     pagecolor="#ffffff"
     bordercolor="#000000"
     borderopacity="0.25"
     inkscape:showpageshadow="2"
     inkscape:pageopacity="0.0"
     inkscape:pagecheckerboard="0"
     inkscape:deskcolor="#d1d1d1">
    <inkscape:page
       x="0"
       y="0"
       width="87.99971"
       height="86.000031"
       id="page2"
       margin="0"
       bleed="0" />
  </sodipodi:namedview>
  <g
     transform="translate(-6.0001478,-959.36217)"
     id="g1"
     style="fill:#000000;fill-opacity:1"
     inkscape:export-filename="D:\Coding\NUI\PhotoCollage-Marker\photocollage-icon-2.svg"
     inkscape:export-xdpi="96"
     inkscape:export-ydpi="96">
    <path
       d="m 10.000148,959.36217 c -2.1813,0 -4,1.8187 -4,4 v 63.93753 c 0,2.1813 1.8187,4 4,4 h 11.8126 l 50.437404,13.9062 c 0.01,10e-5 0.021,10e-5 0.031,0 0.3665,0.098 0.6969,0.1563 1.0625,0.1563 1.8428,0 3.7008,-1.2627 4.2188,-3.1875 l 16.25,-60.37501 c 3e-4,-0.021 3e-4,-0.041 0,-0.062 0.1451,-0.6063 0.1874,-1.177 0.1874,-1.6563 0,-2.1074 -1.5975,-3.3255 -3.1874,-3.75 -0.021,-0.011 -0.042,-0.021 -0.063,-0.031 l -10.75,-2.4688 v -10.46872 c 0,-2.1814 -1.8185,-4 -4,-4 H 9.999448 Z m 0,4 h 66.000004 v 11.46872 c -0.1193,0.3838 -0.1193,0.8038 0,1.1876 v 51.28121 H 22.343948 c -0.3262,-0.084 -0.6738,-0.084 -1,0 h -11.3438 z m 3.625,1.8437 c -0.9722,0.1071 -1.787,1.0219 -1.7812,2.00002 v 28.5938 c -0.2005,0.4839 -0.2005,1.0473 0,1.5312 v 21.40631 c 1e-4,1.0472 0.9528,1.9999 2,2 h 58.312504 c 1.0472,-10e-5 1.9999,-0.9528 2,-2 v -18.4063 c 0.033,-0.2066 0.033,-0.41841 0,-0.62501 v -32.5 c -1e-4,-1.04722 -0.9528,-1.99992 -2,-2.00002 H 13.843948 c -0.073,0 -0.1459,0 -0.2188,0 z m 66.375004,12.71882 9.7813,2.2812 c 0.1143,0.031 0.1588,0.078 0.1875,0.094 -0.01,0.1546 -0.01,0.3144 -0.031,0.4375 v 0.062 l -9.9376,36.90621 v -39.78121 z m -31.156204,3 c 2.1364,0 3.8125,1.6855 3.8125,3.8438 0,2.1583 -1.6761,3.875 -3.8125,3.875 -2.1363,0 -3.8438,-1.7167 -3.8438,-3.875 0,-2.1583 1.7075,-3.8438 3.8438,-3.8438 z m -21.0938,8.6562 18.6876,14.34381 c 0.6566,0.5166 1.6478,0.5563 2.3437,0.094 l 12.875,-8.62501 8.500004,5.68741 v 15.6563 H 15.843948 v -19.18751 l 11.9062,-7.9688 z m 48.593804,41.68761 -2.6562,9.875 c -0.056,0.2082 -0.024,0.2187 -0.3438,0.2187 h -0.031 l -36.500004,-10.0625 h 39.187404 c 0.1151,0 0.231,-0.021 0.3438,-0.031 z"
       style="color:#000000;text-indent:0;text-transform:none;direction:ltr;baseline-shift:baseline;fill:#ffffff;fill-opacity:1;enable-background:accumulate"
       fill="#000000"
       fill-opacity="1"
       stroke="none"
       marker="none"
       visibility="visible"
       display="inline"
       overflow="visible"
       id="path1" />
  </g>
</svg>
